<svg width="60" height="60" viewBox="0 0 60 60" fill="none" xmlns="http://www.w3.org/2000/svg">
<path d="M40.6275 0.214112C39.6321 0.356302 38.0883 0.539117 37.2351 0.620369C36.3616 0.70162 35.5694 0.884435 35.4475 1.02662C35.285 1.20944 35.285 1.67664 35.4475 2.5704C35.549 3.28135 35.6506 3.93136 35.6506 4.01261C35.6506 4.09386 35.3459 4.17511 35.0006 4.21574L34.3302 4.27668L34.4115 7.18141L33.2536 7.30328C32.6239 7.38453 31.9738 7.50641 31.8113 7.60798C31.5269 7.79079 31.4863 7.40485 32.502 15.3472C32.7864 17.4191 33.2333 20.9332 33.4974 23.1676C33.7817 25.402 34.1068 27.9614 34.2083 28.8552C34.3302 29.7489 34.574 31.5771 34.7365 32.9177C34.899 34.2584 35.1834 36.4116 35.3459 37.7116C35.7319 40.6569 35.7319 40.6772 35.285 40.7788C35.0006 40.8601 34.7568 41.4085 34.3302 43.0335L33.7614 45.1867L31.8723 46.8727C30.6941 47.9289 29.9831 48.7211 29.9628 48.9649C29.9628 49.1883 30.2268 50.0211 30.5722 50.793C31.2832 52.4993 31.3035 52.6821 30.755 54.429L30.3284 55.8103L29.8206 54.9165C29.5362 54.4493 29.0893 53.5759 28.8252 53.0274C28.5205 52.4384 27.7079 51.4227 26.8345 50.5899L25.3312 49.168L25.8188 47.2789L26.286 45.4101L25.6156 43.8257L24.9453 42.2616L21.0247 42.1398L21.0044 37.1225C21.0044 34.36 21.0044 26.5395 21.0247 19.755C21.045 10.533 20.9841 7.3236 20.8013 7.10016C20.6388 6.91734 20.1512 6.81578 19.2777 6.81578H17.998L17.8761 4.4798H6.70353L6.58165 6.81578H5.48471C4.89561 6.81578 4.26589 6.87672 4.08306 6.93766C3.79867 7.05953 3.75804 8.78612 3.75804 24.4067V41.7335L0 41.8554V45.9179L0.873491 45.9789L1.72667 46.0398V52.804C1.72667 58.2681 1.78761 59.6291 2.01106 59.8119C2.2142 59.9744 9.89279 60.015 30.7956 59.9947L59.3161 59.9338L59.3771 53.0477C59.4177 47.1773 59.4583 46.1211 59.7224 45.9383C59.9865 45.7554 60.0271 45.2273 59.9865 42.9726L59.9255 40.2304L56.5535 40.3116L53.1814 40.3726L53.0595 39.7022C52.8564 38.585 51.536 28.2458 51.1906 25.1989C51.15 24.752 50.9265 23.0051 50.7031 21.3394C50.2968 18.3331 49.5046 11.9955 49.0374 8.23767C48.692 5.33294 48.7327 5.39388 47.0669 5.53607L45.6856 5.65794L45.4825 4.35793L45.2996 3.05791L43.7964 2.93603L43.6745 1.7782C43.4714 -0.192141 43.4511 -0.192144 40.6275 0.214112ZM42.6385 1.25007C42.6995 1.43288 42.7604 1.92039 42.7604 2.34696C42.7604 3.03759 42.6995 3.13916 42.212 3.24072C41.0134 3.50479 36.7679 3.93136 36.646 3.80948C36.5647 3.72823 36.4632 3.24072 36.4022 2.71259C36.26 1.65632 36.3819 1.53444 37.6414 1.51413C38.0476 1.51413 39.1243 1.39226 40.0181 1.25007C42.2729 0.884436 42.4963 0.884436 42.6385 1.25007ZM44.6699 4.80481C44.7512 5.272 44.7715 5.69858 44.7105 5.7392C44.609 5.86108 41.6025 6.28764 38.0883 6.67358C35.285 6.99859 35.2443 6.99859 35.2443 5.77982V5.04856L36.321 4.92669C36.8898 4.84544 38.657 4.66262 40.2212 4.4798C41.7854 4.29699 43.1058 4.11417 43.1464 4.05323C43.187 4.01261 43.5323 3.97198 43.8777 3.97198C44.4871 3.97198 44.548 4.03292 44.6699 4.80481ZM16.962 6.81578H7.61765V5.19075H16.962V6.81578ZM48.0014 7.77048C48.1233 8.54237 48.4686 11.1221 48.753 13.519C49.0577 15.9159 49.5046 19.5722 49.7687 21.6441C50.0531 23.716 50.4593 26.9052 50.7031 28.7536C50.9265 30.6021 51.2109 32.8365 51.3125 33.7303C51.4141 34.624 51.6375 36.4319 51.8204 37.7522C52.0032 39.0725 52.1251 40.1897 52.0844 40.2304C52.0235 40.271 48.5498 40.3726 44.3449 40.4741L36.6866 40.6366L36.585 40.0272C36.5241 39.6819 36.3413 38.1788 36.1585 36.6756C35.9756 35.1725 35.6506 32.6131 35.4475 30.988C34.8787 26.6614 34.2693 21.8879 33.9443 19.105C33.7817 17.7644 33.538 15.9362 33.4161 15.0425C33.0301 12.219 32.6036 8.37986 32.6442 8.33924C32.6848 8.31892 33.9849 8.13611 35.549 7.9533C39.5915 7.44548 46.0309 6.63296 46.62 6.55171C47.8185 6.34858 47.7982 6.32827 48.0014 7.77048ZM19.9684 24.9348L19.9075 42.0585L12.3914 41.9773C8.26769 41.9569 4.81436 41.8757 4.7331 41.8148C4.63153 41.7741 4.57059 34.0959 4.57059 24.7723V7.83142H20.009L19.9684 24.9348ZM59.1536 43.1148L59.1739 45.0039H47.006C40.3228 45.0039 34.8381 44.9429 34.8381 44.882C34.8381 44.8007 35.0412 44.0289 35.285 43.1554L35.7116 41.5507L38.9821 41.5304C40.79 41.5101 44.5887 41.4288 47.4326 41.3476C50.2765 41.2866 54.0752 41.2257 55.8628 41.2257L59.113 41.246L59.1536 43.1148ZM24.214 43.257C24.3562 43.3788 24.5999 43.8257 24.7828 44.232L25.0875 45.0039H0.792236L0.731295 44.0898C0.710981 43.582 0.751608 43.0742 0.81255 42.9726C0.995373 42.6882 23.889 42.9523 24.214 43.257ZM25.0265 46.1008C25.0672 46.1211 24.9859 46.6086 24.8843 47.157C24.3562 49.6352 24.3359 49.5133 25.4125 50.529C25.961 51.0571 26.6516 51.6868 26.936 51.9712C27.2407 52.2352 27.9923 53.454 28.6017 54.6728C30.0846 57.5572 30.2675 57.8009 30.6331 57.3947C30.7753 57.2322 31.2222 56.0947 31.5879 54.8759L32.2785 52.6415L31.8519 51.5243C31.6285 50.8946 31.3035 50.0821 31.1613 49.7164L30.8972 49.0664L32.502 47.543L34.1271 46.0398L45.9497 46.0195C52.4501 46.0195 57.8942 45.9586 58.077 45.8976C58.3614 45.7758 58.402 46.4461 58.402 52.3977V59.0197H2.74235V45.9179L13.854 45.9789C19.9684 45.9992 24.9859 46.0601 25.0265 46.1008Z" fill="black"/>
<path d="M39.8149 10.208C37.9258 10.4721 36.3413 10.7362 36.3007 10.7768C36.2397 10.8174 36.26 11.0205 36.3413 11.2033C36.4835 11.5893 36.6054 11.569 41.44 10.9799C44.4668 10.6143 44.8934 10.4924 44.8934 10.0455C44.8934 9.59863 43.6542 9.63926 39.8149 10.208Z" fill="black"/>
<path d="M42.0494 14.3315C40.6072 14.5346 38.8805 14.7581 38.2305 14.8393C37.4788 14.9206 37.0116 15.0831 36.9304 15.2659C36.6663 15.9565 37.1945 15.9565 41.9479 15.3268C45.1981 14.9003 45.7872 14.6972 45.3809 14.2096C45.259 14.0471 45.0356 13.9456 44.9137 13.9456C44.7918 13.9659 43.512 14.1284 42.0494 14.3315Z" fill="black"/>
<path d="M43.573 18.5972C43.0651 18.6785 41.7041 18.8613 40.5259 18.9832C37.7632 19.2878 37.4789 19.3691 37.4789 19.8769C37.4789 20.3238 37.0726 20.3441 42.2526 19.7347C45.8075 19.3082 46.0106 19.2472 46.0106 18.78C46.0106 18.455 45.8684 18.3941 45.259 18.4144C44.8324 18.4347 44.0808 18.516 43.573 18.5972Z" fill="black"/>
<path d="M43.8777 22.9645C37.7429 23.7364 37.7632 23.7364 38.0273 24.427C38.1086 24.6301 38.332 24.6911 38.7789 24.6098C39.8556 24.4067 45.6247 23.6754 46.1731 23.6754C46.5591 23.6754 46.7216 23.0457 46.3966 22.8426C46.2341 22.741 46.0716 22.6801 46.0106 22.6801C45.9497 22.7004 44.9949 22.8223 43.8777 22.9645Z" fill="black"/>
<path d="M41.9885 27.6364C40.1603 27.9005 38.6164 28.1645 38.5555 28.2255C38.332 28.4489 38.6977 28.9567 39.0836 28.9567C40.0384 28.9567 46.9247 27.9208 47.0872 27.7583C47.4326 27.413 47.006 27.1286 46.1528 27.1489C45.6856 27.1692 43.8167 27.3927 41.9885 27.6364Z" fill="black"/>
<path d="M46.0106 31.5974C45.4012 31.6787 43.8777 31.8615 42.6385 31.9834C39.7337 32.2881 39.2055 32.4302 39.2055 32.9381C39.2055 33.1615 39.3274 33.3037 39.5102 33.2834C39.6727 33.2631 41.0947 33.1006 42.6589 32.9177C47.3513 32.3896 47.5341 32.349 47.5341 31.9224C47.5341 31.4349 47.4123 31.4146 46.0106 31.5974Z" fill="black"/>
<path d="M43.2276 36.3506C41.4197 36.5741 39.8352 36.8787 39.7337 36.9803C39.6118 37.1022 39.5915 37.3053 39.693 37.4678C39.8556 37.7116 40.2415 37.6913 42.2729 37.4272C43.6136 37.2444 45.2793 37.0209 46.0106 36.96C47.6357 36.7975 48.2451 36.5741 48.2451 36.1678C48.2451 35.7615 47.3716 35.7819 43.2276 36.3506Z" fill="black"/>
<path d="M6.54102 10.7971C6.29726 11.0612 6.37851 14.4331 6.64259 14.6971C6.92699 14.9815 9.79122 15.0222 10.2178 14.7784C10.4006 14.6565 10.4616 14.0878 10.4209 12.6862L10.36 10.7768L8.53177 10.7158C7.51608 10.6955 6.62228 10.7158 6.54102 10.7971ZM9.44589 13.9253H7.41452V11.6909H9.44589V13.9253Z" fill="black"/>
<path d="M14.4228 14.8393H18.0792L18.2011 10.6752H14.3009L14.4228 14.8393ZM17.3682 13.9253H15.1337V11.6909H17.3682V13.9253Z" fill="black"/>
<path d="M6.62228 16.8503C6.45977 17.0331 6.39883 17.7847 6.43946 18.9425L6.5004 20.7301H10.36L10.4209 18.8207C10.4616 17.4191 10.4006 16.8503 10.2178 16.7284C9.7506 16.4441 6.88636 16.5253 6.62228 16.8503ZM9.44589 20.0394L8.49114 19.9785L7.51608 19.9175L7.3942 17.5816H9.44589V20.0394Z" fill="black"/>
<path d="M14.4634 16.7081C14.3821 16.7691 14.3212 17.7441 14.3212 18.841V20.8316H18.1808V18.8207C18.1808 17.1753 18.1199 16.7894 17.8558 16.6878C17.4292 16.5253 14.6259 16.5253 14.4634 16.7081ZM17.2667 19.9175H15.2353L15.1134 17.5816H17.3886L17.2667 19.9175Z" fill="black"/>
<path d="M6.54102 22.7817C6.29726 23.0457 6.37851 26.4176 6.64259 26.6817C6.92699 26.9661 9.79122 27.0067 10.2178 26.763C10.4006 26.6411 10.4616 26.0723 10.4209 24.6707L10.36 22.7613L8.53177 22.7004C7.51608 22.6801 6.62228 22.7004 6.54102 22.7817ZM9.44589 25.9098H7.41452V23.4723H9.44589V25.9098Z" fill="black"/>
<path d="M14.4228 26.8239H18.0792L18.2011 22.6598H14.3009L14.4228 26.8239ZM17.3886 25.9098H15.1337V24.8332C15.1337 24.2239 15.1947 23.6754 15.2759 23.5942C15.3572 23.5129 15.8447 23.4723 16.3526 23.5129L17.2667 23.5739L17.3886 25.9098Z" fill="black"/>
<path d="M6.52071 28.8552C6.33789 29.3427 6.37851 32.2677 6.56134 32.5724C6.68322 32.7552 7.23169 32.8162 8.55208 32.7756L10.36 32.7146V28.6521L8.51146 28.5911C6.9473 28.5505 6.62228 28.5911 6.52071 28.8552ZM9.44589 32.024L8.49114 31.963L7.51608 31.9021L7.3942 29.5661H9.44589V32.024Z" fill="black"/>
<path d="M14.3212 32.8365L18.0792 32.7146V28.6521L14.3212 28.5302V32.8365ZM17.2667 31.9021L16.2104 31.963L15.1337 32.0443V29.5661H17.3886L17.2667 31.9021Z" fill="black"/>
<path d="M6.62228 34.7256C6.45977 34.9084 6.39883 35.66 6.43946 36.8178L6.5004 38.6053H10.36L10.4209 36.6959C10.4616 35.2943 10.4006 34.7256 10.2178 34.6037C9.7506 34.3193 6.88636 34.4006 6.62228 34.7256ZM9.48652 36.4725C9.50683 37.0412 9.52714 37.5897 9.48652 37.6913C9.44589 37.8131 8.95836 37.8944 8.40989 37.8944H7.41452V35.4568H9.40526L9.48652 36.4725Z" fill="black"/>
<path d="M14.4634 34.5834C14.3821 34.6443 14.3212 35.6194 14.3212 36.7162V38.7069H18.1808V36.6959C18.1808 35.0506 18.1199 34.6646 17.8558 34.5631C17.4292 34.4006 14.6259 34.4006 14.4634 34.5834ZM17.2667 37.7928L16.2104 37.8538L15.1337 37.9147V35.4568H17.3886L17.2667 37.7928Z" fill="black"/>
<path d="M29.5565 31.3333C27.972 32.4302 27.7283 33.2224 28.6424 34.1365C29.3127 34.8272 30.9581 34.8678 31.6082 34.2178C32.1363 33.6896 31.9941 32.6334 31.2628 31.638C30.6941 30.9068 30.2878 30.8255 29.5565 31.3333ZM30.7347 32.5115C31.2222 33.5474 31.08 33.7099 29.8612 33.6287C29.008 33.5678 28.8861 33.2224 29.4956 32.5724C30.1659 31.8615 30.4503 31.8615 30.7347 32.5115Z" fill="black"/>
<path d="M24.214 36.635C23.5639 37.3256 23.503 37.6913 23.8483 38.8085C24.539 40.8804 26.0016 41.1851 27.322 39.5194C28.3377 38.2397 28.1142 37.3866 26.611 36.6147C25.3515 36.0053 24.8234 36.0053 24.214 36.635ZM26.0828 37.4069C26.5297 37.5694 26.936 37.8538 26.997 38.0163C27.1188 38.3616 25.9813 39.7225 25.5547 39.7225C25.0875 39.7225 24.4171 37.9959 24.6812 37.4881C24.9453 37.0006 25.0468 37.0006 26.0828 37.4069Z" fill="black"/>
<path d="M28.3783 42.6273C27.8298 43.2163 27.8095 43.8867 28.3377 44.7398C28.8658 45.6133 29.7596 45.6539 30.4909 44.8617C31.405 43.8664 30.8566 42.6273 29.333 42.282C28.9471 42.2007 28.683 42.282 28.3783 42.6273ZM30.0034 43.5617C30.0846 43.6429 30.0237 43.907 29.8409 44.1507C29.5768 44.5164 29.4549 44.5773 29.2315 44.3742C29.069 44.2523 28.9471 43.9273 28.9471 43.6429C28.9471 43.2163 29.008 43.1757 29.4143 43.2773C29.6581 43.3585 29.9221 43.4804 30.0034 43.5617Z" fill="black"/>
</svg>
