<svg width="45" height="60" viewBox="0 0 45 60" fill="none" xmlns="http://www.w3.org/2000/svg">
<path d="M26.0931 0.85541C25.6333 1.33658 25.0899 2.0316 24.8809 2.41921C24.3654 3.31471 23.822 5.31958 23.822 6.36211C23.822 7.31108 24.2818 10.0511 24.6162 11.0268C24.853 11.7485 25.7308 13.4593 26.1767 14.0875L26.4553 14.4885L26.9569 13.9539C27.9461 12.9113 28.4059 11.5881 28.4199 9.73029C28.4199 8.31352 28.2805 7.63186 27.556 5.47997C27.0544 4.00973 26.9848 3.66222 26.9848 2.5395C26.9848 1.84448 27.0266 0.989068 27.0823 0.628192C27.138 0.240585 27.1241 0 27.0405 0C26.9708 0 26.5389 0.387608 26.0931 0.85541Z" fill="black"/>
<path d="M19.6421 3.34145C19.2938 3.47511 18.6111 3.80925 18.1095 4.08993C17.6079 4.35725 16.9531 4.71812 16.6466 4.86515C15.9081 5.22602 14.0551 6.93684 13.4699 7.80562C12.8847 8.6343 12.0627 10.5723 11.7701 11.7619C11.4635 13.045 11.4914 15.09 11.8537 16.3063C12.0069 16.8543 12.7872 18.5651 13.5813 20.1155C15.1279 23.1228 15.7131 24.6064 16.1589 26.6647C16.4654 28.1082 16.5212 30.073 16.2843 31.1423C16.1311 31.8239 15.8803 32.0511 15.8803 31.5031C15.8803 31.3294 15.6991 30.8215 15.4623 30.3938C14.891 29.2978 13.2469 27.7741 10.5022 25.8227C8.38437 24.3124 7.65986 23.6307 7.10254 22.6015C6.79602 22.0268 6.4059 20.2759 6.4059 19.4338C6.4059 18.5784 6.72635 16.5335 6.96321 15.8518C7.04681 15.638 7.07468 15.4375 7.04681 15.4107C6.90748 15.2771 5.12407 17.1617 4.67822 17.9235C2.68582 21.3719 2.83908 25.0207 5.08227 27.6003C6.16904 28.8567 6.65669 29.6052 7.43693 31.2626C8.3983 33.2808 8.63516 34.1629 8.63516 35.8337C8.63516 37.197 8.42617 38.1058 7.85492 39.2018C7.43693 39.9904 6.54523 41.3404 6.47556 41.2735C6.4477 41.2468 6.51736 40.632 6.64276 39.8969C6.96321 37.8118 6.69849 36.0876 5.77892 34.2699C5.04047 32.813 3.3546 31.3561 1.18106 30.2869C-0.017164 29.6988 -0.309755 29.672 0.331158 30.22C0.902407 30.7012 2.14243 32.3987 2.53256 33.2407C3.1038 34.4704 3.00627 36.4218 2.2957 38.5736C1.36219 41.3404 1.20893 42.169 1.22286 44.3744C1.2368 46.1253 1.27859 46.6466 1.57119 47.7158C3.04807 53.1824 6.96321 56.9516 13.2051 58.9164C15.0861 59.5178 18.4857 60.0257 20.4781 59.999L21.6624 59.9856L20.6871 59.8119C18.9455 59.4911 17.385 58.7693 16.4933 57.8471C15.1976 56.5105 15.0443 55.2809 16.0335 54.1982C16.7023 53.4765 17.0367 52.5943 17.0228 51.5919C17.0088 50.4425 16.772 49.841 15.6991 48.3307C15.1976 47.6356 14.7238 46.8471 14.6263 46.5797C14.3476 45.7912 14.5148 44.4011 14.9746 43.6125C15.3926 42.8641 16.5212 41.7146 16.3818 42.169C15.727 44.3477 16.0475 45.457 17.6497 46.6867C18.7783 47.5421 20.0601 48.7183 20.3806 49.1861C20.6035 49.5202 20.6035 49.5069 20.6035 48.6648C20.6174 47.1812 20.0601 45.5506 18.7783 43.372C18.4996 42.9042 18.4578 42.6502 18.4718 41.3671C18.4718 40.1642 18.5275 39.7766 18.7783 39.2553C19.266 38.1994 20.6592 37.0366 22.1779 36.4351L22.6795 36.2213L22.4009 36.9965C22.0107 38.0256 22.0247 39.4692 22.4287 40.632C22.9024 41.9819 23.613 42.971 25.2989 44.6417C27.6954 47.0342 28.4059 48.2906 28.5453 50.389L28.6289 51.6587L28.9075 50.79C29.1165 50.1217 29.1862 49.547 29.1862 48.3173C29.1862 46.4327 28.8797 45.3635 27.9322 43.7997C27.5978 43.2784 27.361 42.8106 27.3749 42.7972C27.4585 42.717 29.1583 44.1204 29.6042 44.6283C30.5377 45.6842 31.5826 47.5955 32.0563 49.0524C32.4465 50.3222 32.4883 52.4206 32.1399 53.7304C31.8613 54.7195 30.9974 56.5239 30.3844 57.3927C29.9246 58.0342 28.8379 58.7827 27.779 59.197C26.8454 59.5579 27.1659 59.5446 28.7125 59.1436C33.5193 57.9407 37.6434 55.2942 40.3464 51.6988C41.879 49.6539 43.6206 45.6976 44.3034 42.6769C44.7213 40.8325 45 38.4801 45 36.8495L44.9861 35.3525L44.5263 36.6222C43.4256 39.5894 41.67 42.9443 40.5136 44.2808C39.7194 45.1897 38.4655 46.3124 38.354 46.2055C38.3261 46.1788 38.6466 45.4704 39.0646 44.6283C39.9424 42.8507 40.5415 41.1131 40.9734 39.0815C41.4193 37.0232 41.4193 33.8154 40.9734 31.8106C40.0399 27.6003 37.6852 23.4169 34.3413 20.0754C32.8784 18.6052 30.6491 16.6671 30.5377 16.7607C30.5098 16.7874 30.7885 17.2552 31.1507 17.7899C31.9449 18.966 33.2685 21.6258 33.7004 22.8822C34.5364 25.3014 34.8987 28.8033 34.5643 31.2091C34.3553 32.6793 33.7283 34.8312 33.0595 36.3148C32.5022 37.5578 32.3211 37.6915 32.6694 36.5955C32.8227 36.1678 32.9341 35.2188 32.9759 34.1496C33.1013 31.2893 32.4883 29.0037 30.9556 26.5845C30.5237 25.8895 30.0779 25.1544 29.9664 24.9673C29.6738 24.4326 27.6675 22.254 27.0684 21.8263C25.7587 20.8907 23.6966 18.672 22.0525 16.4399C19.0709 12.4034 18.3046 7.6185 20.0462 3.94291C20.2691 3.46174 20.4224 3.07413 20.3667 3.08716C20.3109 3.08716 19.9905 3.19443 19.6421 3.34145Z" fill="black"/>
<path d="M32.2653 9.78375C32.2235 10.2382 31.9588 11.2139 31.6941 11.9757C30.9278 14.141 31.0532 15.1167 32.3211 16.48C33.0177 17.2285 33.0735 17.2151 33.7701 15.9855C34.6061 14.542 34.7454 12.8846 34.1602 11.3876C33.9652 10.8931 32.544 8.95507 32.3907 8.95507C32.3768 8.95507 32.3211 9.32932 32.2653 9.78375Z" fill="black"/>
</svg>
