<svg width="60" height="60" viewBox="0 0 60 60" fill="none" xmlns="http://www.w3.org/2000/svg">
<path d="M26.9093 21.7712C25.8089 20.66 23.52 20.6156 22.2875 21.3267C22.2875 20.8082 22.7872 19.5507 23.4444 18.4378C23.9454 17.7778 24.7778 17 26.2491 16.66C28.0098 16.4378 31.5313 16.2156 33.292 19.7712C33.7322 20.8823 33.7322 23.3902 32.4116 25.1045C30.871 27.1045 26.4692 31.5556 26.9094 36.2222H30.4308C30.4308 35.1111 30.871 33.9934 32.4116 31.9934C33.7322 30.4378 36.8134 29.1045 39.0143 26.66C44.0764 19.9934 39.0143 14.1997 33.9523 13.1046C30.871 12.4379 26.2491 12.4378 24.0482 13.7712C20.5268 15.7712 19.2337 18.2157 18.9861 20.2157C18.9127 20.8083 18.81 22.349 18.9861 23.7712C19.2062 24.512 19.4263 25.9934 21.187 27.1045C22.5076 27.7712 24.4884 28.2156 26.4692 26.8823C28.2299 25.5489 28.3179 23.3712 26.9093 21.7712Z" fill="black"/>
<path d="M33.1111 43.3333C33.1111 45.5425 31.3202 47.3333 29.1111 47.3333C26.902 47.3333 25.1111 45.5425 25.1111 43.3333C25.1111 41.1242 26.902 39.3333 29.1111 39.3333C31.3202 39.3333 33.1111 41.1242 33.1111 43.3333Z" fill="black"/>
<path fill-rule="evenodd" clip-rule="evenodd" d="M30 60C46.5685 60 60 46.5685 60 30C60 13.4315 46.5685 0 30 0C13.4315 0 0 13.4315 0 30C0 46.5685 13.4315 60 30 60ZM30 55.5556C44.1139 55.5556 55.5556 44.1139 55.5556 30C55.5556 15.8861 44.1139 4.44444 30 4.44444C15.8861 4.44444 4.44444 15.8861 4.44444 30C4.44444 44.1139 15.8861 55.5556 30 55.5556Z" fill="black"/>
</svg>
