<svg width="300" height="300" viewBox="0 0 300 300" fill="none" xmlns="http://www.w3.org/2000/svg">
<path fill-rule="evenodd" clip-rule="evenodd" d="M91.8735 117.931C93.5075 121.045 95.1608 124.196 97.5056 127.053C98.6105 124.258 99.4864 121.673 100.283 119.038C102.751 111.064 107.042 103.777 112.815 97.7588C115.841 94.6647 115.92 91.5207 112.675 88.5264C109.264 85.3706 104.946 84.677 100.711 83.9968C100.004 83.8832 99.2987 83.77 98.6005 83.6457C91.4595 82.3862 84.2641 83.2174 77.1377 84.0406C76.1882 84.1503 75.2399 84.2599 74.2932 84.3643C66.347 85.2442 58.3631 85.6916 50.3763 86.1392C45.4068 86.4177 40.4363 86.6963 35.473 87.0791C28.7141 87.6111 22.0206 86.809 15.3282 86.007C13.3572 85.7708 11.3862 85.5346 9.41376 85.3325C9.19696 85.3115 8.97118 85.2817 8.74165 85.2514L8.74164 85.2514C7.44306 85.0802 6.02432 84.8931 5.43221 86.1908C5.05019 87.0271 4.91741 87.9563 5.04986 88.8665C5.18231 89.7767 5.57434 90.6291 6.17875 91.3211C8.65784 94.3172 12.1883 96.2462 16.043 96.7108C24.2163 97.6482 32.4517 97.9219 40.6689 97.5292C45.699 97.2093 50.6921 96.6189 55.6832 96.0287C60.0356 95.514 64.3864 94.9995 68.7588 94.6647C74.1347 94.2506 79.4921 94.3675 84.8594 94.4846L84.8594 94.4846C87.3828 94.5397 89.9084 94.5948 92.4391 94.5948C89.9487 95.93 87.2598 96.8535 84.476 97.3296C82.4553 97.7488 82.0174 98.6471 82.9232 100.434C83.7409 102.047 84.5381 103.672 85.3357 105.298L85.3359 105.299C86.8973 108.482 88.4599 111.668 90.1795 114.766C90.7598 115.808 91.3155 116.867 91.8735 117.931ZM25.2904 111.179L25.2906 111.179C25.9739 111.166 26.6798 111.153 27.4103 111.153C30.8527 111.239 34.6909 110.711 38.6732 110.164C40.7478 109.879 42.8616 109.589 44.9789 109.377C55.5816 108.237 65.9643 105.957 76.3557 103.676L76.3558 103.676L77.6674 103.388C77.9665 103.356 78.2561 103.264 78.5192 103.118C78.7822 102.972 79.0134 102.774 79.199 102.537C79.3846 102.3 79.5209 102.028 79.5998 101.737C79.6786 101.446 79.6985 101.142 79.6582 100.843C79.6184 99.4955 78.5534 99.0763 77.3589 99.0164C76.9674 98.9632 76.5758 98.9809 76.1843 98.9987C75.9886 99.0076 75.7928 99.0164 75.597 99.0164C73.2908 99.1146 71.011 99.4109 68.7341 99.7068L68.7341 99.7068C66.3823 100.012 64.0335 100.318 61.6616 100.404C54.5247 100.663 47.3877 101.102 40.2707 101.661C31.8669 102.467 23.3994 102.323 15.0277 101.232C12.5093 100.873 11.1656 102.28 12.0415 104.656C12.8626 106.589 14.2514 108.225 16.0231 109.347C18.7011 111.302 21.6818 111.246 25.2904 111.179H25.2904ZM29.5007 124.678C24.5237 125.107 22.0353 121.753 20.5422 118.929C19.7359 117.401 20.7413 117.072 21.9955 116.872C23.0684 116.705 24.143 116.544 25.218 116.382L25.2186 116.382L25.2193 116.382L25.22 116.381L25.2206 116.381L25.2213 116.381C28.643 115.866 32.0682 115.35 35.4531 114.667C40.638 113.614 45.8476 112.687 51.0575 111.76L51.0576 111.76L51.0576 111.76L51.0577 111.76L51.0577 111.76L51.0578 111.76C59.0904 110.33 67.1239 108.9 75.0695 107.011C76.7133 106.682 78.3753 106.452 80.0465 106.323C80.1629 106.311 80.2844 106.294 80.4082 106.277C81.1624 106.172 81.9969 106.055 82.2363 107.161C82.3113 107.395 82.3365 107.642 82.3103 107.886C82.284 108.131 82.207 108.367 82.0841 108.579C81.9612 108.792 81.7952 108.976 81.5968 109.12C81.3984 109.265 81.1721 109.366 80.9324 109.417C72.1829 112.9 63.324 116.034 54.2958 118.699C51.97 119.382 49.635 120.031 47.2995 120.681L47.2994 120.681L47.2994 120.681L47.2993 120.681L47.2992 120.681L47.2991 120.681C44.2072 121.542 41.1145 122.402 38.0411 123.34C36.0533 123.92 34.0058 124.134 32.2379 124.318C31.2083 124.426 30.2736 124.523 29.5007 124.678ZM30.3965 133.391C33.1438 135.886 36.5381 136.455 40.1812 136.705C42.3011 136.453 44.3637 135.845 46.2829 134.908C49.1014 133.595 51.9345 132.313 54.7676 131.031L54.7679 131.031C59.6891 128.804 64.6104 126.576 69.4555 124.188C74.4943 121.9 79.3965 119.321 84.1375 116.463C85.3121 115.705 86.3473 114.806 85.6804 113.339C84.9454 111.739 83.6132 112.389 82.6285 112.87C82.5196 112.923 82.415 112.974 82.3159 113.02C77.9818 114.93 73.5274 116.498 69.0688 118.067L69.0687 118.067L69.0686 118.067L69.0685 118.067L69.0683 118.067C67.9362 118.465 66.8038 118.864 65.6731 119.268C58.2459 121.925 50.7353 124.322 43.2223 126.72L43.2222 126.72L43.222 126.72L43.2219 126.72L43.2218 126.721C39.1355 128.025 35.0485 129.329 30.9738 130.676C30.8194 130.729 30.6352 130.751 30.448 130.772C29.9353 130.831 29.4011 130.893 29.4011 131.624C29.43 131.973 29.5339 132.312 29.7057 132.617C29.8775 132.922 30.1132 133.186 30.3965 133.391ZM48.4429 148.213C45.2134 148.107 43.5306 146.451 41.9196 144.865L41.9194 144.865L41.9193 144.865L41.9192 144.865C41.6981 144.647 41.4784 144.431 41.2562 144.22C40.5794 143.592 40.6291 142.703 41.8236 142.144C43.1113 141.533 44.3997 140.923 45.6882 140.313L45.6882 140.313L45.6883 140.313L45.6884 140.313C52.4378 137.118 59.1892 133.922 65.8423 130.536C67.0966 129.896 68.3558 129.263 69.6156 128.63L69.6156 128.63L69.616 128.63L69.6161 128.63C75.0743 125.885 80.5432 123.136 85.6704 119.787C85.8018 119.701 85.9335 119.609 86.0656 119.517C86.8745 118.951 87.6972 118.376 88.5272 119.268C89.4927 120.306 88.6765 121.424 87.9996 122.262C85.375 125.449 82.0824 127.911 78.8061 130.361L78.3842 130.676C71.7743 135.706 64.7857 140.214 57.4811 144.16C57.028 144.398 56.5747 144.639 56.1224 144.879L56.1219 144.88L56.1213 144.88L56.1208 144.88L56.1208 144.88C53.453 146.299 50.817 147.701 48.4429 148.213ZM54.9221 155.902C56.0122 156.562 57.1185 157.231 58.4267 157.066C59.4405 157.18 60.4615 156.925 61.3033 156.347C71.6371 148.73 80.4297 139.468 89.2162 130.213L89.2187 130.21C89.665 129.74 90.1113 129.27 90.5578 128.8C91.2944 128.011 92.3395 126.804 91.6229 125.955C90.953 125.123 90.2886 125.706 89.645 126.27C89.4087 126.477 89.1752 126.682 88.9453 126.814C87.9812 127.304 87.0561 127.868 86.1781 128.5C78.123 134.809 69.6754 140.568 61.2297 146.325L61.2294 146.326C58.9986 147.846 56.7679 149.367 54.5447 150.898C51.4092 153.054 51.3196 153.732 54.6342 155.729L54.75 155.798L54.9221 155.902ZM94.0217 130.536C92.6704 134.251 90.4584 137.377 88.2679 140.473C88.0218 140.82 87.776 141.168 87.5318 141.515C84.2045 146.217 80.6762 150.774 77.1476 155.331C76.0314 156.773 74.9152 158.215 73.8054 159.661C73.1715 160.621 72.2946 161.395 71.2645 161.904C70.2343 162.412 69.0879 162.637 67.9425 162.555C66.9471 162.466 65.9518 162.336 65.3943 161.328C64.8369 160.32 65.5635 159.332 66.1807 158.663C66.6385 158.152 67.0949 157.641 67.5506 157.132C70.067 154.318 72.5603 151.53 75.1392 148.792C79.5886 144.091 84.0977 139.4 88.6366 134.818C88.9994 134.463 89.3481 134.087 89.6984 133.71L89.6986 133.709C90.9053 132.408 92.1317 131.086 94.0217 130.536ZM94.3946 141.328C95.3218 139.022 96.2794 136.64 96.3709 134.09C96.1618 134.009 95.9305 134.007 95.72 134.084C95.5095 134.161 95.334 134.312 95.2262 134.509C94.2966 135.987 93.3655 137.465 92.4343 138.943C89.3168 143.892 86.198 148.842 83.1322 153.822C81.6292 156.257 80.2655 158.783 78.9914 161.348C78.6264 161.899 78.4859 162.569 78.5989 163.221C78.7118 163.872 79.0696 164.456 79.5986 164.851C80.8058 165.725 81.4906 164.929 82.1404 164.173C82.2621 164.031 82.3826 163.891 82.5051 163.763C83.2884 163.007 83.9984 162.178 84.6253 161.288C88.4276 155.167 91.6183 148.684 94.1512 141.935C94.2317 141.733 94.313 141.531 94.3946 141.328Z" fill="#ADADAD"/>
<path fill-rule="evenodd" clip-rule="evenodd" d="M209.875 95.7723L209.875 95.7723L209.875 95.7723L209.875 95.7723L209.874 95.7721L209.874 95.772L209.873 95.7718C209.038 95.5255 208.194 95.277 207.337 95.0339C207.78 94.3354 208.204 94.3439 208.585 94.3516C208.683 94.3536 208.778 94.3555 208.87 94.3452C220.709 93.5237 232.421 94.7647 244.132 96.0054C249.779 96.6038 255.427 97.2022 261.088 97.5691C268.711 98.1654 276.379 97.7458 283.892 96.3215L283.902 96.3194C287.254 95.6413 290.962 94.8911 293.368 91.8001C294.682 90.1333 295.478 88.177 294.682 86.2706C294.055 84.7698 292.62 85.0011 291.256 85.221C290.887 85.2804 290.524 85.339 290.183 85.3624C289.726 85.3934 289.269 85.4667 288.812 85.54C288.682 85.561 288.552 85.5819 288.421 85.6019C280.581 86.7394 272.659 87.2069 264.741 86.9992C259.517 86.9342 254.283 86.5816 249.05 86.229L249.05 86.229C247.053 86.0945 245.057 85.96 243.061 85.8414C238.771 85.6027 234.492 85.1819 230.213 84.7609L230.213 84.7609C226.798 84.4249 223.382 84.0889 219.958 83.8452C218.817 83.7627 217.675 83.6659 216.532 83.569C210.346 83.0448 204.142 82.519 198.06 84.2545C197.122 84.5238 196.159 84.732 195.193 84.9408C192.579 85.5059 189.948 86.0747 187.767 87.8676C185.08 90.0634 183.676 94.7844 185.488 96.4013C192.834 102.929 197.164 111.243 200.09 120.446C200.552 121.902 201.071 123.34 201.601 124.808C201.87 125.553 202.141 126.306 202.41 127.073C204.017 125.864 204.776 124.25 205.507 122.696C205.79 122.094 206.069 121.502 206.391 120.945C210.394 114.223 213.977 107.26 217.121 100.094C217.918 98.2179 217.241 97.7288 215.549 97.3296C213.652 96.8853 211.784 96.3349 209.875 95.7723ZM238.054 106.672C249.83 108.933 261.74 110.427 273.709 111.143C274.405 111.143 275.102 111.164 275.801 111.186L275.801 111.186C276.9 111.219 278.002 111.252 279.104 111.203C280.94 111.038 282.704 110.41 284.234 109.379C285.763 108.348 287.008 106.947 287.854 105.304C289.128 103.049 287.893 100.813 285.704 101.172C276.516 102.669 267.319 102.31 258.091 101.671C254.903 101.449 251.714 101.268 248.527 101.087L248.527 101.087C240.41 100.626 232.303 100.166 224.248 99.0264C222.586 98.7869 220.794 98.7769 220.346 100.683C219.799 102.999 221.879 103.408 223.512 103.678C226.383 104.129 229.22 104.763 232.058 105.398L232.058 105.398C234.052 105.843 236.046 106.289 238.054 106.672ZM268.089 124.461L268.089 124.461C266.057 124.136 264.014 123.809 262.023 123.32C249.562 120.124 237.269 116.296 225.194 111.852C223.925 111.396 222.678 110.878 221.428 110.358L221.428 110.358C220.57 110.001 219.711 109.644 218.843 109.307C218.409 109.206 218.027 108.945 217.777 108.575C217.526 108.205 217.423 107.753 217.49 107.311C217.709 106.143 218.744 106.203 219.65 106.313C221.525 106.468 223.39 106.735 225.234 107.111C232.112 108.814 239.088 110.037 246.066 111.259L246.066 111.26L246.066 111.26L246.067 111.26C248.248 111.642 250.429 112.024 252.607 112.421C254.784 112.821 256.956 113.25 259.128 113.679L259.129 113.679C264.815 114.803 270.504 115.926 276.287 116.533C276.455 116.55 276.634 116.561 276.818 116.573C277.861 116.64 279.081 116.719 279.403 117.771C279.781 119.008 278.935 120.306 277.94 121.424C276.078 123.49 274.187 125.167 271.061 124.957C270.079 124.78 269.085 124.621 268.089 124.461ZM249.953 133.286C253.207 134.863 256.487 136.452 260.252 136.725C260.783 136.636 261.321 136.563 261.861 136.49L261.862 136.49L261.862 136.49L261.862 136.49L261.862 136.49C264.295 136.161 266.767 135.827 268.852 133.99C269.017 133.842 269.196 133.711 269.372 133.582L269.372 133.582C269.977 133.138 270.548 132.72 270.424 131.714C270.299 130.69 269.547 130.592 268.864 130.503C268.681 130.48 268.504 130.457 268.344 130.417C265.822 129.803 263.361 128.98 260.903 128.159C259.801 127.79 258.7 127.422 257.594 127.073C251.711 125.206 245.881 123.174 240.05 121.142L240.05 121.142L240.049 121.141C235.532 119.567 231.013 117.992 226.468 116.493C224.41 115.814 222.431 114.974 220.453 114.135L220.452 114.135C219.349 113.667 218.247 113.2 217.131 112.76C216.096 112.361 214.912 111.912 214.364 113.359C214.246 113.608 214.18 113.878 214.171 114.154C214.162 114.429 214.21 114.704 214.312 114.96C214.414 115.216 214.567 115.448 214.763 115.641C214.959 115.835 215.192 115.985 215.449 116.084C216.6 116.721 217.733 117.398 218.866 118.075L218.866 118.075L218.866 118.076L218.867 118.076L218.867 118.076L218.867 118.076C220.625 119.126 222.383 120.176 224.199 121.074C231.813 124.817 239.438 128.53 247.192 131.984C248.117 132.397 249.034 132.841 249.953 133.286L249.953 133.286ZM253.184 148.213C249.584 148.008 247.046 146.599 244.7 145.297C244.302 145.076 243.91 144.858 243.519 144.65C236.259 140.797 229.316 136.371 222.755 131.415C219.221 128.886 215.892 126.079 212.801 123.021C212.294 122.55 211.852 122.013 211.487 121.424C211.262 121.11 211.14 120.734 211.138 120.347C211.137 119.961 211.255 119.584 211.478 119.268C212.115 118.589 212.931 118.839 213.647 119.268C220.74 123.894 228.293 127.651 235.83 131.399L235.83 131.399C238.733 132.843 241.634 134.286 244.504 135.776C248.297 137.736 252.187 139.526 256.072 141.314L256.072 141.314L256.617 141.565L257.355 141.905C259.654 142.973 259.266 144.26 257.614 145.388C257.072 145.758 256.577 146.222 256.102 146.668C255.128 147.583 254.235 148.421 253.184 148.213ZM236.681 154.937C237.903 156.149 239.166 157.402 240.971 157.116C244.057 157.066 246.017 155.569 247.769 153.742C248.695 152.794 247.998 152.195 247.112 151.676C246.589 151.367 246.062 151.063 245.533 150.758C243.91 149.821 242.284 148.883 240.782 147.813C233.528 142.704 226.301 137.558 219.08 132.417L219.08 132.417C216.343 130.468 213.607 128.519 210.87 126.574C210.718 126.467 210.563 126.331 210.405 126.193C209.798 125.664 209.144 125.094 208.402 125.885C207.765 126.594 208.402 127.542 209.049 128.251C217.33 137.234 225.672 146.217 235.347 153.712C235.802 154.065 236.239 154.498 236.681 154.937L236.681 154.937ZM206.053 130.077C208.43 131.422 210.26 133.417 212.076 135.397C212.633 136.004 213.188 136.609 213.757 137.194C218.076 141.635 222.312 146.166 226.548 150.697L226.548 150.697L226.548 150.698C228.823 153.131 231.098 155.564 233.386 157.984C234.381 158.982 234.949 160.17 234.381 161.477C233.878 162.637 232.702 162.564 231.631 162.498C231.493 162.49 231.358 162.481 231.226 162.476C228.807 162.476 227.185 160.968 225.851 159.192C220.177 151.606 214.513 144.011 208.929 136.355C207.684 134.479 206.534 132.54 205.485 130.546L206.053 130.077ZM211.136 144.411C208.933 140.815 206.726 137.211 204.012 133.84C203.485 134.562 203.689 135.114 203.886 135.646C203.924 135.746 203.961 135.846 203.992 135.946C205.814 142.753 208.8 149.101 211.955 155.359C213.406 158.511 215.318 161.428 217.629 164.013C217.649 164.034 217.67 164.055 217.69 164.076C218.376 164.785 219.228 165.666 220.446 164.891C221.7 164.092 221.601 162.905 221.272 161.717C221.07 161.161 220.796 160.634 220.456 160.15C219.603 158.697 218.768 157.238 217.934 155.782C216.317 152.956 214.705 150.137 212.971 147.384C212.352 146.397 211.744 145.404 211.136 144.411Z" fill="#ADADAD"/>
<path fill-rule="evenodd" clip-rule="evenodd" d="M145.032 105.616C144.289 106.932 143.544 108.249 142.796 109.566C142.964 109.653 143.09 109.731 143.193 109.795C143.34 109.886 143.441 109.948 143.552 109.966H185.03C185.154 109.966 185.285 109.983 185.418 110C185.881 110.061 186.358 110.124 186.583 109.457C186.821 108.75 186.404 108.206 186.005 107.684C185.919 107.572 185.834 107.462 185.757 107.351C182.609 102.806 178.655 98.8818 174.091 95.7726C168.929 92.4021 163.149 90.095 157.09 88.9856C156.428 88.77 155.709 88.8201 155.083 89.1253C154.457 89.4306 153.974 89.9673 153.735 90.6224C152.946 92.2306 151.989 93.7531 151.033 95.275C150.458 96.1901 149.884 97.1051 149.345 98.0383C147.891 100.554 146.463 103.083 145.032 105.616ZM112.516 110.554C114.807 113.488 116.518 116.667 118.213 119.814L118.213 119.814C119.148 121.55 120.077 123.276 121.096 124.947C123.729 129.284 126.203 133.717 128.678 138.152L128.678 138.152L128.678 138.153C129.769 140.107 130.861 142.063 131.966 144.011C132.133 144.296 132.325 144.574 132.518 144.854C132.669 145.073 132.821 145.294 132.961 145.518C134.534 148.412 134.355 148.702 131.04 148.702H112.237C111.617 148.796 110.985 148.652 110.466 148.298C109.948 147.945 109.581 147.408 109.44 146.795C105.299 135.916 106.036 125.187 110.227 114.537C110.892 113.155 111.657 111.824 112.516 110.554ZM150.241 174.872L172.269 136.745C173.84 138.154 174.715 139.889 175.57 141.584C176.005 142.446 176.434 143.297 176.947 144.091C178.685 146.78 180.254 149.576 181.824 152.374L181.824 152.375C182.34 153.295 182.856 154.214 183.378 155.13C183.91 155.85 184.162 156.739 184.087 157.632C184.012 158.525 183.614 159.36 182.97 159.98C176.162 167.559 167.076 172.706 157.089 174.642C154.827 175.023 152.524 175.1 150.241 174.872Z" fill="#ACACAC"/>
<path fill-rule="evenodd" clip-rule="evenodd" d="M127.487 127.253C126.34 125.276 125.211 123.324 124.092 121.39L124.092 121.39C121.444 116.812 118.856 112.339 116.239 107.89C115.423 106.512 115.293 105.344 116.478 104.157C120.459 100.164 124.441 96.3814 129.477 93.7564C135.69 90.3335 142.675 88.5703 149.763 88.6362L127.487 127.253ZM165.182 114.697H187.678C188.29 114.604 188.915 114.748 189.425 115.1C189.936 115.452 190.293 115.986 190.425 116.593C194.755 127.722 193.839 138.681 189.589 149.53C189.452 149.904 189.282 150.265 189.081 150.608C188.594 151.347 188.086 152.045 187.21 153.223L165.182 114.697ZM157 154.111H156.999L157 154.112C156.359 155.258 155.729 156.411 155.098 157.566L155.097 157.567C153.476 160.535 151.852 163.509 150.032 166.368C149.424 167.35 148.875 168.365 148.326 169.381C147.562 170.792 146.798 172.205 145.872 173.535C145.006 174.782 144.408 175.002 143.074 174.712C130.134 171.988 119.802 165.54 112.854 154.082C112.868 154.075 112.881 154.069 112.895 154.062C112.916 153.31 113.428 153.373 113.867 153.427L113.867 153.427C113.975 153.44 114.078 153.453 114.168 153.453H155.825C156.299 153.497 156.767 153.594 157.219 153.742C157.238 153.804 157.238 153.87 157.219 153.932C157.152 153.999 157.079 154.059 157 154.111Z" fill="#0F0F0F"/>
<path d="M59.8894 189.636H65.1991L70.807 203.318H71.0457L76.6536 189.636H81.9633V210H77.7871V196.746H77.6181L72.3482 209.901H69.5045L64.2346 196.696H64.0656V210H59.8894V189.636ZM90.0661 210.288C89.0916 210.288 88.2233 210.119 87.461 209.781C86.6987 209.437 86.0954 208.929 85.6513 208.26C85.2138 207.584 84.9951 206.742 84.9951 205.734C84.9951 204.886 85.1508 204.173 85.4624 203.597C85.7739 203.02 86.1982 202.556 86.7351 202.205C87.272 201.853 87.8819 201.588 88.5647 201.409C89.2541 201.23 89.9766 201.104 90.7323 201.031C91.6205 200.938 92.3364 200.852 92.88 200.773C93.4236 200.687 93.818 200.561 94.0632 200.395C94.3085 200.229 94.4311 199.984 94.4311 199.659V199.599C94.4311 198.97 94.2323 198.482 93.8345 198.138C93.4434 197.793 92.8866 197.621 92.1641 197.621C91.4018 197.621 90.7952 197.79 90.3445 198.128C89.8937 198.459 89.5954 198.877 89.4496 199.381L85.532 199.062C85.7308 198.134 86.1219 197.332 86.7053 196.656C87.2886 195.973 88.041 195.45 88.9624 195.085C89.8904 194.714 90.9643 194.528 92.184 194.528C93.0325 194.528 93.8445 194.628 94.6201 194.827C95.4023 195.026 96.095 195.334 96.6982 195.751C97.308 196.169 97.7886 196.706 98.1399 197.362C98.4913 198.012 98.6669 198.791 98.6669 199.699V210H94.6499V207.882H94.5306C94.2853 208.359 93.9572 208.78 93.5462 209.145C93.1352 209.503 92.6414 209.785 92.0647 209.99C91.488 210.189 90.8218 210.288 90.0661 210.288ZM91.2791 207.365C91.9023 207.365 92.4524 207.242 92.9297 206.997C93.407 206.745 93.7815 206.407 94.0533 205.983C94.3251 205.559 94.461 205.078 94.461 204.541V202.92C94.3284 203.007 94.1461 203.086 93.9141 203.159C93.6887 203.225 93.4335 203.288 93.1485 203.348C92.8634 203.401 92.5784 203.451 92.2933 203.497C92.0083 203.537 91.7498 203.573 91.5178 203.607C91.0206 203.679 90.5864 203.795 90.2152 203.955C89.844 204.114 89.5557 204.329 89.3502 204.601C89.1447 204.866 89.0419 205.197 89.0419 205.595C89.0419 206.172 89.2507 206.613 89.6683 206.918C90.0926 207.216 90.6295 207.365 91.2791 207.365ZM114.941 199.082L111.063 199.321C110.996 198.99 110.854 198.691 110.635 198.426C110.416 198.154 110.128 197.939 109.77 197.78C109.419 197.614 108.998 197.531 108.507 197.531C107.851 197.531 107.298 197.67 106.847 197.949C106.396 198.221 106.171 198.585 106.171 199.043C106.171 199.407 106.316 199.715 106.608 199.967C106.9 200.219 107.4 200.421 108.11 200.574L110.874 201.131C112.359 201.436 113.466 201.926 114.195 202.602C114.924 203.278 115.289 204.167 115.289 205.267C115.289 206.268 114.994 207.146 114.404 207.902C113.82 208.658 113.018 209.248 111.997 209.672C110.983 210.089 109.813 210.298 108.487 210.298C106.466 210.298 104.855 209.877 103.655 209.036C102.462 208.187 101.763 207.034 101.557 205.575L105.723 205.357C105.849 205.973 106.154 206.444 106.638 206.768C107.122 207.087 107.742 207.246 108.497 207.246C109.24 207.246 109.836 207.103 110.287 206.818C110.745 206.527 110.977 206.152 110.983 205.695C110.977 205.31 110.814 204.995 110.496 204.75C110.178 204.498 109.687 204.306 109.024 204.173L106.379 203.646C104.888 203.348 103.778 202.831 103.048 202.095C102.326 201.359 101.965 200.421 101.965 199.281C101.965 198.3 102.23 197.455 102.76 196.746C103.297 196.036 104.049 195.49 105.017 195.105C105.992 194.721 107.132 194.528 108.438 194.528C110.367 194.528 111.885 194.936 112.992 195.751C114.105 196.567 114.755 197.677 114.941 199.082ZM130.943 199.082L127.065 199.321C126.999 198.99 126.857 198.691 126.638 198.426C126.419 198.154 126.131 197.939 125.773 197.78C125.421 197.614 125 197.531 124.51 197.531C123.854 197.531 123.3 197.67 122.849 197.949C122.399 198.221 122.173 198.585 122.173 199.043C122.173 199.407 122.319 199.715 122.611 199.967C122.902 200.219 123.403 200.421 124.112 200.574L126.876 201.131C128.361 201.436 129.468 201.926 130.197 202.602C130.927 203.278 131.291 204.167 131.291 205.267C131.291 206.268 130.996 207.146 130.406 207.902C129.823 208.658 129.021 209.248 128 209.672C126.986 210.089 125.816 210.298 124.49 210.298C122.468 210.298 120.857 209.877 119.658 209.036C118.465 208.187 117.765 207.034 117.56 205.575L121.726 205.357C121.852 205.973 122.157 206.444 122.641 206.768C123.125 207.087 123.744 207.246 124.5 207.246C125.242 207.246 125.839 207.103 126.29 206.818C126.747 206.527 126.979 206.152 126.986 205.695C126.979 205.31 126.817 204.995 126.499 204.75C126.18 204.498 125.69 204.306 125.027 204.173L122.382 203.646C120.891 203.348 119.78 202.831 119.051 202.095C118.329 201.359 117.967 200.421 117.967 199.281C117.967 198.3 118.232 197.455 118.763 196.746C119.3 196.036 120.052 195.49 121.02 195.105C121.994 194.721 123.134 194.528 124.44 194.528C126.369 194.528 127.887 194.936 128.994 195.751C130.108 196.567 130.758 197.677 130.943 199.082ZM141.078 210V189.636H149.113C150.65 189.636 151.963 189.911 153.05 190.462C154.144 191.005 154.976 191.777 155.546 192.778C156.123 193.773 156.411 194.943 156.411 196.288C156.411 197.641 156.119 198.804 155.536 199.778C154.953 200.746 154.107 201.489 153 202.006C151.9 202.523 150.568 202.781 149.003 202.781H143.624V199.321H148.307C149.129 199.321 149.812 199.208 150.355 198.983C150.899 198.758 151.303 198.42 151.569 197.969C151.84 197.518 151.976 196.958 151.976 196.288C151.976 195.612 151.84 195.042 151.569 194.578C151.303 194.114 150.896 193.763 150.346 193.524C149.802 193.279 149.116 193.156 148.287 193.156H145.384V210H141.078ZM152.076 200.733L157.137 210H152.384L147.432 200.733H152.076ZM166.368 210.298C164.797 210.298 163.445 209.98 162.311 209.344C161.184 208.701 160.316 207.793 159.706 206.619C159.096 205.439 158.791 204.044 158.791 202.433C158.791 200.862 159.096 199.483 159.706 198.297C160.316 197.11 161.174 196.186 162.281 195.523C163.395 194.86 164.701 194.528 166.199 194.528C167.207 194.528 168.145 194.691 169.013 195.016C169.888 195.334 170.65 195.814 171.3 196.457C171.956 197.1 172.467 197.909 172.831 198.884C173.196 199.851 173.378 200.985 173.378 202.284V203.447H160.482V200.822H169.391C169.391 200.213 169.258 199.672 168.993 199.202C168.728 198.731 168.36 198.363 167.889 198.098C167.425 197.826 166.885 197.69 166.269 197.69C165.626 197.69 165.056 197.839 164.558 198.138C164.068 198.429 163.683 198.824 163.405 199.321C163.127 199.812 162.984 200.358 162.977 200.962V203.457C162.977 204.213 163.117 204.866 163.395 205.416C163.68 205.966 164.081 206.391 164.598 206.689C165.115 206.987 165.728 207.136 166.438 207.136C166.908 207.136 167.339 207.07 167.73 206.938C168.121 206.805 168.456 206.606 168.735 206.341C169.013 206.076 169.225 205.751 169.371 205.366L173.289 205.625C173.09 206.566 172.682 207.388 172.066 208.091C171.456 208.787 170.667 209.33 169.699 209.722C168.738 210.106 167.628 210.298 166.368 210.298ZM189.13 199.082L185.252 199.321C185.185 198.99 185.043 198.691 184.824 198.426C184.605 198.154 184.317 197.939 183.959 197.78C183.608 197.614 183.187 197.531 182.696 197.531C182.04 197.531 181.487 197.67 181.036 197.949C180.585 198.221 180.36 198.585 180.36 199.043C180.36 199.407 180.506 199.715 180.797 199.967C181.089 200.219 181.589 200.421 182.299 200.574L185.063 201.131C186.548 201.436 187.655 201.926 188.384 202.602C189.113 203.278 189.478 204.167 189.478 205.267C189.478 206.268 189.183 207.146 188.593 207.902C188.009 208.658 187.207 209.248 186.186 209.672C185.172 210.089 184.002 210.298 182.676 210.298C180.655 210.298 179.044 209.877 177.844 209.036C176.651 208.187 175.952 207.034 175.746 205.575L179.912 205.357C180.038 205.973 180.343 206.444 180.827 206.768C181.311 207.087 181.931 207.246 182.686 207.246C183.429 207.246 184.025 207.103 184.476 206.818C184.934 206.527 185.166 206.152 185.172 205.695C185.166 205.31 185.003 204.995 184.685 204.75C184.367 204.498 183.876 204.306 183.213 204.173L180.569 203.646C179.077 203.348 177.967 202.831 177.238 202.095C176.515 201.359 176.154 200.421 176.154 199.281C176.154 198.3 176.419 197.455 176.949 196.746C177.486 196.036 178.239 195.49 179.206 195.105C180.181 194.721 181.321 194.528 182.627 194.528C184.556 194.528 186.074 194.936 187.181 195.751C188.294 196.567 188.944 197.677 189.13 199.082ZM199.325 210.298C197.761 210.298 196.415 209.967 195.289 209.304C194.168 208.634 193.306 207.706 192.703 206.52C192.107 205.333 191.808 203.968 191.808 202.423C191.808 200.859 192.11 199.487 192.713 198.307C193.323 197.12 194.188 196.196 195.308 195.533C196.429 194.863 197.761 194.528 199.306 194.528C200.638 194.528 201.805 194.77 202.806 195.254C203.806 195.738 204.599 196.418 205.182 197.293C205.765 198.168 206.087 199.195 206.146 200.375H202.149C202.037 199.613 201.738 199 201.254 198.536C200.777 198.065 200.151 197.83 199.375 197.83C198.719 197.83 198.146 198.009 197.655 198.366C197.171 198.718 196.793 199.232 196.521 199.908C196.25 200.584 196.114 201.402 196.114 202.364C196.114 203.338 196.246 204.167 196.512 204.849C196.783 205.532 197.164 206.053 197.655 206.411C198.146 206.768 198.719 206.947 199.375 206.947C199.859 206.947 200.293 206.848 200.678 206.649C201.069 206.45 201.39 206.162 201.642 205.784C201.901 205.4 202.07 204.939 202.149 204.402H206.146C206.08 205.569 205.762 206.596 205.192 207.484C204.628 208.366 203.85 209.055 202.855 209.553C201.861 210.05 200.684 210.298 199.325 210.298ZM218.932 203.497V194.727H223.168V210H219.102V207.226H218.942C218.598 208.121 218.024 208.84 217.222 209.384C216.427 209.927 215.456 210.199 214.309 210.199C213.288 210.199 212.39 209.967 211.614 209.503C210.839 209.039 210.232 208.379 209.795 207.524C209.364 206.669 209.145 205.645 209.138 204.452V194.727H213.374V203.696C213.381 204.598 213.623 205.31 214.1 205.834C214.577 206.357 215.217 206.619 216.019 206.619C216.53 206.619 217.007 206.503 217.451 206.271C217.895 206.033 218.253 205.681 218.525 205.217C218.803 204.753 218.939 204.18 218.932 203.497ZM233.797 210.298C232.226 210.298 230.873 209.98 229.74 209.344C228.613 208.701 227.745 207.793 227.135 206.619C226.525 205.439 226.22 204.044 226.22 202.433C226.22 200.862 226.525 199.483 227.135 198.297C227.745 197.11 228.603 196.186 229.71 195.523C230.824 194.86 232.13 194.528 233.628 194.528C234.635 194.528 235.573 194.691 236.442 195.016C237.317 195.334 238.079 195.814 238.728 196.457C239.385 197.1 239.895 197.909 240.26 198.884C240.624 199.851 240.807 200.985 240.807 202.284V203.447H227.91V200.822H236.819C236.819 200.213 236.687 199.672 236.422 199.202C236.157 198.731 235.789 198.363 235.318 198.098C234.854 197.826 234.314 197.69 233.697 197.69C233.054 197.69 232.484 197.839 231.987 198.138C231.496 198.429 231.112 198.824 230.834 199.321C230.555 199.812 230.413 200.358 230.406 200.962V203.457C230.406 204.213 230.545 204.866 230.824 205.416C231.109 205.966 231.51 206.391 232.027 206.689C232.544 206.987 233.157 207.136 233.866 207.136C234.337 207.136 234.768 207.07 235.159 206.938C235.55 206.805 235.885 206.606 236.163 206.341C236.442 206.076 236.654 205.751 236.799 205.366L240.717 205.625C240.518 206.566 240.111 207.388 239.494 208.091C238.884 208.787 238.095 209.33 237.128 209.722C236.166 210.106 235.056 210.298 233.797 210.298Z" fill="black"/>
</svg>
